<?xml version="1.0" encoding="UTF-8" standalone="no"?>
<svg
   version="1.1"
   viewBox="0 0 512 512"
   id="svg154"
   xmlns="http://www.w3.org/2000/svg"
   xmlns:svg="http://www.w3.org/2000/svg">
  <defs
     id="defs134">
    <style
       id="style132">.cls-1{fill:none;stroke:#000;stroke-linecap:round;stroke-linejoin:round;stroke-width:2px;}</style>
  </defs>
  <g
     fill="#3d83c4"
     stroke-width="11.623"
     aria-label="{ }"
     id="g140">
    <path
       d="m128.99 419.22q0 10.669 2.9511 17.48 2.9511 6.8103 8.1724 10.669 5.4482 3.8592 13.167 5.2212 7.7183 1.5891 17.48 1.8161v33.37q-17.253-0.22701-31.781-4.0862-14.529-3.6322-25.198-11.578-10.442-7.7183-16.572-19.977-5.9023-12.259-5.9023-29.738v-107.15q0-22.928-14.756-32.462-14.529-9.5344-42.224-9.5344v-34.505q27.695 0 42.224-9.5344 14.756-9.5344 14.756-32.462v-107.38q0-17.253 5.9023-29.511 6.1293-12.259 16.572-19.977 10.669-7.9453 25.198-11.577 14.529-3.8592 31.781-4.0862v33.143q-9.7614 0.22701-17.48 1.8161-7.7183 1.3621-13.167 5.2212-5.2212 3.8592-8.1724 10.669-2.9511 6.8103-2.9511 17.48v106.92q0 23.382-12.486 37.23-12.486 13.621-36.549 18.161v2.4971q24.063 4.5402 36.549 18.161 12.486 13.394 12.486 37.003z"
       id="path136" />
    <path
       d="m382.78 312.53q0-23.609 12.486-37.003 12.486-13.621 36.776-18.161v-2.4971q-24.29-4.5402-36.776-18.161-12.486-13.848-12.486-37.23v-106.92q0-10.669-2.9511-17.48-2.7241-6.8103-8.1724-10.669-5.2212-3.8592-13.167-5.2212-7.7183-1.5891-17.253-1.8161v-33.143q17.026 0.22701 31.554 4.0862 14.756 3.6322 25.198 11.577 10.669 7.7183 16.572 19.977 6.1293 12.259 6.1293 29.511v107.38q0 11.577 3.6322 19.523 3.6322 7.9453 10.896 12.94 7.2643 4.9942 17.934 7.2643 10.669 2.2701 24.517 2.2701v34.505q-27.922 0-42.451 9.5344-14.529 9.5344-14.529 32.462v107.15q0 17.48-6.1293 29.738-5.9022 12.259-16.572 19.977-10.442 7.9453-25.198 11.578-14.529 3.8592-31.554 4.0862v-33.37q9.5344-0.22701 17.253-1.8161 7.9453-1.362 13.167-5.2212 5.4482-3.8592 8.1724-10.669 2.9511-6.8103 2.9511-17.48z"
       id="path138" />
  </g>
  <g
     transform="matrix(9.6108 0 0 9.6108 -1504.1 -546.3)"
     stroke="#3d83c4"
     id="g152"
     style="stroke:#3d83c4;stroke-opacity:1">
    <path
       class="cls-1"
       d="m191.14 81.56h-14v6a2 2 0 0 0 2 2h3c-1 2.58-1 6.86-1 8a3 3 0 0 0 6 0c0-1.14 0-5.42-1-8h3a2 2 0 0 0 2-2z"
       id="path142"
       style="stroke:#3d83c4;stroke-opacity:1" />
    <polyline
       class="cls-1"
       transform="translate(167.14 69.56)"
       points="10 12 10 8 24 8 24 12"
       id="polyline144"
       style="stroke:#3d83c4;stroke-opacity:1" />
    <path
       class="cls-1"
       d="m177.14 77.56v-2.17a6.83 6.83 0 0 0-2-4.83h16v7"
       id="path146"
       style="stroke:#3d83c4;stroke-opacity:1" />
    <line
       class="cls-1"
       x1="182.14"
       x2="182.14"
       y1="70.56"
       y2="74.56"
       id="line148"
       style="stroke:#3d83c4;stroke-opacity:1" />
    <line
       class="cls-1"
       x1="186.14"
       x2="186.14"
       y1="70.56"
       y2="74.56"
       id="line150"
       style="stroke:#3d83c4;stroke-opacity:1" />
  </g>
</svg>
